<svg width="79" height="80" fill="none" xmlns="http://www.w3.org/2000/svg"><path fill-rule="evenodd" clip-rule="evenodd" d="M39.487 0c1.983 0 3.59 1.837 3.59 4.103V16.41c0 2.266-1.607 4.103-3.59 4.103-1.982 0-3.59-1.837-3.59-4.103V4.103c0-2.266 1.608-4.103 3.59-4.103zm20 40c0-2.266 1.745-4.103 3.898-4.103h11.692c2.153 0 3.898 1.837 3.898 4.103s-1.745 4.103-3.898 4.103H63.385c-2.153 0-3.898-1.837-3.898-4.103zm-20 19.487c1.983 0 3.59 1.837 3.59 4.103v12.307c0 2.266-1.607 4.103-3.59 4.103-1.982 0-3.59-1.837-3.59-4.103V63.59c0-2.266 1.608-4.103 3.59-4.103zM0 40c0-2.266 1.745-4.103 3.897-4.103H15.59c2.152 0 3.897 1.837 3.897 4.103s-1.745 4.103-3.897 4.103H3.897C1.745 44.103 0 42.266 0 40zm11.423-28.577a3.982 3.982 0 015.63 0l8.447 8.446a3.982 3.982 0 01-5.63 5.631l-8.447-8.446a3.982 3.982 0 010-5.631zm56.129 0a3.982 3.982 0 010 5.63L59.105 25.5a3.982 3.982 0 11-5.631-5.63l8.447-8.447a3.982 3.982 0 015.63 0zM53.474 53.474a3.982 3.982 0 015.631 0l8.447 8.447a3.982 3.982 0 11-5.632 5.63l-8.446-8.446a3.982 3.982 0 010-5.631zm-27.974 0a3.982 3.982 0 010 5.631l-8.446 8.447a3.982 3.982 0 11-5.631-5.631l8.446-8.447a3.982 3.982 0 015.631 0z" fill="#FF5112"/></svg>