<svg width="30" height="30" fill="none" xmlns="http://www.w3.org/2000/svg"><path fill-rule="evenodd" clip-rule="evenodd" d="M5.25 3a1.5 1.5 0 00-1.5 1.5v21a1.5 1.5 0 001.5 1.5h10.5a1.5 1.5 0 001.5-1.5v-3.75a1.5 1.5 0 013 0v3.75a4.5 4.5 0 01-4.5 4.5H5.25a4.5 4.5 0 01-4.5-4.5v-21A4.5 4.5 0 015.25 0h10.5a4.5 4.5 0 014.5 4.5v4.594a1.5 1.5 0 01-3 0V4.5a1.5 1.5 0 00-1.5-1.5H5.25zm17.69 7.19a1.5 1.5 0 012.12 0l3.75 3.75a1.5 1.5 0 010 2.12l-3.75 3.75a1.5 1.5 0 01-2.12-2.12l1.189-1.19H12.75a1.5 1.5 0 010-3h11.379l-1.19-1.19a1.5 1.5 0 010-2.12z" fill="#FF5112"/></svg>