<svg width="31" height="31" fill="none" xmlns="http://www.w3.org/2000/svg"><path d="M8.892 22.312h-1.4v1.6h1.4c.525 0 .875-.32.875-.8 0-.48-.35-.8-.875-.8zm9.1-19.19h-14v25.587h22.75V11.118l-8.75-7.996zm-6.65 20.15c0 1.279-1.05 2.238-2.45 2.238h-1.4v1.6h-1.75v-6.397h3.15c1.4 0 2.45.96 2.45 2.239v.32zm7.175.8c0 1.598-1.4 3.038-3.325 3.038h-2.45v-6.397h2.45c1.75 0 3.325 1.28 3.325 3.038v.32zm6.475-1.76h-3.5v1.6h2.625v1.598h-2.625v1.6h-1.75v-6.397h5.25v1.599zm0-3.198H5.742V4.72h12.25v6.397h7v7.996zm-9.8 3.198h-.7v3.198h.7c1.05 0 1.75-.64 1.75-1.599 0-.96-.875-1.599-1.75-1.599z" fill="#1637AB"/></svg>