<svg width="31" height="31" fill="none" xmlns="http://www.w3.org/2000/svg"><path d="M29.597 5.871l-4.196-4.196a4.639 4.639 0 00-2.78-1.312.921.921 0 00-.26-.06H5.658A4.688 4.688 0 00.97 4.99v20.625a4.688 4.688 0 004.687 4.688h20.625a4.687 4.687 0 004.688-4.688V9.185a4.656 4.656 0 00-1.373-3.314zM15.97 2.178v8.353H9.237V2.178h6.733zm-8.01 26.25v-8.354h16.02v8.354H7.96zm21.135-2.813a2.813 2.813 0 01-2.813 2.813h-.427v-9.291a.937.937 0 00-.938-.938H7.022a.938.938 0 00-.937.938v9.29h-.428a2.813 2.813 0 01-2.812-2.812V4.99a2.812 2.812 0 012.812-2.812h1.705v9.29a.937.937 0 00.937.938h14.063a.937.937 0 00.937-.938v-9c.287.133.55.314.776.535l4.197 4.196c.524.528.82 1.241.823 1.985v16.431z" fill="#FF5112"/></svg>