<svg width="30" height="30" fill="none" xmlns="http://www.w3.org/2000/svg"><path fill-rule="evenodd" clip-rule="evenodd" d="M15 7.692c.637 0 1.154.517 1.154 1.154v5.676l3.508 3.508a1.154 1.154 0 01-1.632 1.632l-3.846-3.846a1.154 1.154 0 01-.338-.816V8.846c0-.637.517-1.154 1.154-1.154z" fill="#FF5112"/><path d="M3.212 7.109l-1.154.005a1.154 1.154 0 001.148 1.148l.006-1.153zm3.91 1.173a1.154 1.154 0 00.012-2.308l-.011 2.308zM4.347 3.187a1.154 1.154 0 00-2.307.011l2.307-.011zM2.308 15A1.154 1.154 0 000 15h2.308zM22.5 27.993a1.154 1.154 0 10-1.156-1.998l1.156 1.998zm3.494-6.648a1.154 1.154 0 101.998 1.156l-1.998-1.156zM4.447 4.34A1.154 1.154 0 106.07 5.98L4.447 4.34zm21.11.103C19.68-1.434 10.183-1.494 4.344 4.344l1.632 1.632c4.922-4.921 12.958-4.893 17.95.099l1.631-1.632zM4.344 4.344L2.396 6.293l1.632 1.632 1.948-1.949-1.632-1.632zM3.206 8.262l3.917.02.011-2.308-3.916-.02-.012 2.308zm1.16-1.16l-.02-3.915-2.307.011.02 3.916 2.307-.011zM15 2.309c7.01 0 12.692 5.682 12.692 12.692H30c0-8.284-6.716-15-15-15v2.308zm0 25.384C7.99 27.692 2.308 22.01 2.308 15H0c0 8.284 6.716 15 15 15v-2.308zm6.345-1.697A12.63 12.63 0 0115 27.692V30c2.73 0 5.293-.73 7.5-2.007l-1.155-1.998zM27.692 15c0 2.314-.618 4.48-1.697 6.345l1.998 1.156A14.936 14.936 0 0030 15h-2.308zM6.07 5.98A12.648 12.648 0 0115 2.308V0A14.956 14.956 0 004.447 4.34L6.07 5.98z" fill="#FF5112"/></svg>