<svg width="12" height="13" viewBox="0 0 12 13" fill="none" xmlns="http://www.w3.org/2000/svg">
<path fill-rule="evenodd" clip-rule="evenodd" d="M6.00001 13C6.19891 13 6.38971 12.9239 6.53034 12.7885L11.7803 7.73291C12.0732 7.45088 12.0732 6.99357 11.7803 6.71154C11.4875 6.42951 11.0126 6.42951 10.7197 6.71154L6.75001 10.5342V0.722222C6.75001 0.323339 6.41424 0 6.00001 0C5.58578 0 5.25001 0.323339 5.25001 0.722222V10.5342L1.28033 6.71154C0.987436 6.42951 0.512566 6.42951 0.219668 6.71154C-0.0732226 6.99357 -0.0732226 7.45088 0.219668 7.73291L5.46968 12.7885C5.61031 12.9239 5.80111 13 6.00001 13Z" fill="#AB1616"/>
</svg>
