<svg width="12" height="13" viewBox="0 0 12 13" fill="none" xmlns="http://www.w3.org/2000/svg">
<path fill-rule="evenodd" clip-rule="evenodd" d="M6.00001 0C6.19891 0 6.38971 0.0760934 6.53034 0.211532L11.7803 5.26709C12.0732 5.54912 12.0732 6.00643 11.7803 6.28846C11.4875 6.57049 11.0126 6.57049 10.7197 6.28846L6.75001 2.46582V12.2778C6.75001 12.6767 6.41424 13 6.00001 13C5.58578 13 5.25001 12.6767 5.25001 12.2778V2.46582L1.28033 6.28846C0.987436 6.57049 0.512566 6.57049 0.219668 6.28846C-0.0732226 6.00643 -0.0732226 5.54912 0.219668 5.26709L5.46968 0.211532C5.61031 0.0760934 5.80111 0 6.00001 0Z" fill="#60AB16"/>
</svg>
