<svg width="79" height="80" viewBox="0 0 79 80" fill="none" xmlns="http://www.w3.org/2000/svg">
<path fill-rule="evenodd" clip-rule="evenodd" d="M39.4872 0C41.4698 0 43.0769 1.83678 43.0769 4.10256V16.4103C43.0769 18.676 41.4698 20.5128 39.4872 20.5128C37.5046 20.5128 35.8975 18.676 35.8975 16.4103V4.10256C35.8975 1.83678 37.5046 0 39.4872 0Z" fill="#FF5112"/>
<path fill-rule="evenodd" clip-rule="evenodd" d="M59.4873 40C59.4873 37.7342 61.2322 35.8974 63.3847 35.8974H75.077C77.2295 35.8974 78.9745 37.7342 78.9745 40C78.9745 42.2658 77.2295 44.1026 75.077 44.1026H63.3847C61.2322 44.1026 59.4873 42.2658 59.4873 40Z" fill="#FF5112"/>
<path fill-rule="evenodd" clip-rule="evenodd" d="M39.4872 59.4872C41.4698 59.4872 43.0769 61.324 43.0769 63.5897V75.8974C43.0769 78.1632 41.4698 80 39.4872 80C37.5046 80 35.8975 78.1632 35.8975 75.8974V63.5897C35.8975 61.324 37.5046 59.4872 39.4872 59.4872Z" fill="#FF5112"/>
<path fill-rule="evenodd" clip-rule="evenodd" d="M0 40C0 37.7342 1.74494 35.8974 3.89744 35.8974H15.5897C17.7422 35.8974 19.4872 37.7342 19.4872 40C19.4872 42.2658 17.7422 44.1026 15.5897 44.1026H3.89744C1.74494 44.1026 0 42.2658 0 40Z" fill="#FF5112"/>
<path fill-rule="evenodd" clip-rule="evenodd" d="M11.4226 11.4227C12.9776 9.86766 15.4987 9.86766 17.0537 11.4226L25.5004 19.8693C27.0554 21.4243 27.0553 23.9454 25.5004 25.5004C23.9454 27.0554 21.4242 27.0554 19.8693 25.5004L11.4226 17.0538C9.8676 15.4988 9.8676 12.9776 11.4226 11.4227Z" fill="#FF5112"/>
<path fill-rule="evenodd" clip-rule="evenodd" d="M67.5516 11.4226C69.1066 12.9776 69.1066 15.4988 67.5516 17.0537L59.105 25.5004C57.55 27.0554 55.0289 27.0554 53.4739 25.5004C51.9189 23.9455 51.9189 21.4243 53.4739 19.8693L61.9205 11.4227C63.4755 9.86767 65.9966 9.86766 67.5516 11.4226Z" fill="#FF5112"/>
<path fill-rule="evenodd" clip-rule="evenodd" d="M53.4739 53.4739C55.0289 51.9189 57.55 51.9189 59.105 53.4739L67.5516 61.9206C69.1066 63.4756 69.1066 65.9967 67.5516 67.5517C65.9966 69.1067 63.4755 69.1067 61.9205 67.5517L53.4739 59.1051C51.9189 57.5501 51.9189 55.0289 53.4739 53.4739Z" fill="#FF5112"/>
<path fill-rule="evenodd" clip-rule="evenodd" d="M25.5004 53.474C27.0554 55.029 27.0553 57.5501 25.5003 59.1051L17.0537 67.5517C15.4987 69.1067 12.9776 69.1067 11.4226 67.5517C9.86759 65.9967 9.86761 63.4755 11.4226 61.9206L19.8693 53.4739C21.4243 51.9189 23.9454 51.919 25.5004 53.474Z" fill="#FF5112"/>
</svg>
