<svg width="229" height="80" viewBox="0 0 229 80" fill="none" xmlns="http://www.w3.org/2000/svg">
<path d="M41.0691 22.668L48.0339 15.7032L41.1027 8.7721L34.1379 15.7369L41.0691 22.668Z" fill="#FF5112"/>
<path d="M49.7699 -1.16785e-05L42.8049 6.96497L49.7359 13.8959L56.7008 6.93094L49.7699 -1.16785e-05Z" fill="#FF5112"/>
<path d="M58.5928 8.73067L51.628 15.6954L58.5592 22.6266L65.5239 15.6618L58.5928 8.73067Z" fill="#FF5112"/>
<path d="M49.7297 17.3586L42.7647 24.3235L49.6958 31.2547L56.6608 24.2897L49.7297 17.3586Z" fill="#FF5112"/>
<path d="M120.261 27.2511H114.173L104.449 40.6092H95.9557V27.2511H90.5031V59.0567H95.9557V45.6985H104.404L114.127 59.0567H120.852L108.993 42.745L120.261 27.2511Z" fill="#FF5112"/>
<path d="M223.103 27.2511V40.6092H202.495V27.2511H197.042V59.0567H202.495V45.6985H223.103V59.0567H228.555V27.2511H223.103Z" fill="#FF5112"/>
<path d="M84.3298 37.0972L74.6492 27.4166V27.3417H62.6024V27.4359L62.5144 27.3479L52.7654 37.0972L52.7777 37.1095H52.7617V59.0567H58.214V48.6065H78.9456V59.0567H84.3982V37.1095H84.3179L84.3298 37.0972ZM58.2143 43.1539V39.3594L64.7795 32.7943H72.3163L78.9459 39.4238V43.1539H58.2143Z" fill="#FF5112"/>
<path d="M148.044 27.2621L148.025 27.2812V27.2559H128.021V27.2761L128.007 27.2621L122.248 33.0219L122.28 33.0541H122.167V53.2575H122.28L122.247 53.2906L128.007 59.0503L128.021 59.0364V59.0563H148.025V59.0312L148.044 59.05L153.804 53.2903L153.771 53.2572H153.804V33.0538H153.772L153.804 33.0216L148.044 27.2621ZM145.78 53.6043H130.272L127.62 50.9526V35.3604L130.272 32.7084H145.78L148.352 35.2804V51.0323L145.78 53.6043Z" fill="#FF5112"/>
<path d="M190.682 39.8739H165.18V35.2697L167.746 32.7037H190.336V27.2514H165.523V27.287L165.487 27.2514L159.727 33.0112L159.738 33.022H159.727V39.8739H159.727V45.3262H185.23V51.0384L182.664 53.6044H159.727V59.0567H184.887V59.0211L184.922 59.0567L190.682 53.2969L190.671 53.2864H190.682V44.3462H190.682V39.8739Z" fill="#FF5112"/>
<path d="M46.8321 37.0972L37.1514 27.4166V27.3417H30.6406V27.4359L30.5526 27.3479L23.4938 34.4068L16.5038 27.4166V27.3417H9.99332V27.4359L9.90506 27.3479L0.156062 37.0972L0.168886 37.1095H0.152657V59.0567H5.60465V39.3594L12.1701 32.7943H14.1701L20.8002 39.4235V59.0567H26.2523V39.3594L32.8174 32.7943H34.818L41.4476 39.4235V59.0567H46.9001V37.1095H46.8198L46.8321 37.0972Z" fill="#FF5112"/>
<path d="M0 68.4067H2.33084L1.22706 70.7134H1.10406L0 68.4067ZM0.306908 71.4126H2.01198V77.5465H0.306908V71.4126Z" fill="#FF5112"/>
<path d="M4.02367 71.4126V77.5464H5.72902V74.3444C5.72902 73.9193 5.86796 73.5675 6.14611 73.2896C6.42398 73.0114 6.77587 72.8725 7.20093 72.8725C7.60179 72.8725 7.91865 73.0032 8.15182 73.2651C8.38499 73.5267 8.5057 73.8869 8.51367 74.3444V77.5464H10.2313V74.0745C10.2313 73.5182 10.1188 73.0297 9.8939 72.6086C9.66899 72.1875 9.35411 71.8624 8.94927 71.6332C8.54443 71.4043 8.08037 71.2899 7.5568 71.2899C7.15623 71.2899 6.78811 71.3613 6.45302 71.5045C6.11736 71.6477 5.82696 71.8502 5.58184 72.1118V71.4126H4.02367Z" fill="#FF5112"/>
<path d="M18.2303 71.4126H16.3897L14.7213 76.0498H14.6234L12.9548 71.4126H11.078L13.4823 77.5465H15.8132L18.2303 71.4126Z" fill="#FF5112"/>
<path d="M25.2353 74.4549C25.2353 73.8496 25.0941 73.3061 24.812 72.8232C24.5298 72.3407 24.1412 71.9643 23.6464 71.6947C23.1516 71.4248 22.6015 71.2899 21.9963 71.2899C21.383 71.2899 20.8205 71.4288 20.3094 71.7069C19.7984 71.9851 19.3935 72.3714 19.0952 72.8662C18.7965 73.3608 18.6473 73.9151 18.6473 74.5283C18.6473 75.1416 18.7883 75.6859 19.0704 76.1599C19.3528 76.6345 19.7471 77.0046 20.2545 77.2703C20.7613 77.5359 21.342 77.6688 21.9963 77.6688C22.5364 77.6688 23.0249 77.5766 23.4625 77.3927C23.8998 77.2088 24.2537 76.9673 24.5236 76.669C24.7935 76.3703 24.9651 76.0455 25.0389 75.6936H23.3338C23.2191 75.8735 23.0454 76.0167 22.8122 76.1226C22.5793 76.2294 22.3194 76.2826 22.0333 76.2826C21.5752 76.2826 21.1909 76.1579 20.88 75.9083C20.5691 75.6591 20.3772 75.346 20.3035 74.9699H25.1983C25.2225 74.7979 25.2353 74.6268 25.2353 74.4549ZM20.3399 73.8539C20.4381 73.5025 20.6363 73.2198 20.9349 73.0072C21.2336 72.7945 21.5749 72.6883 21.9593 72.6883C22.3601 72.6883 22.7015 72.7925 22.9836 73.0012C23.266 73.2096 23.4559 73.494 23.5541 73.8539H20.3399Z" fill="#FF5112"/>
<path d="M30.0931 76.2523C29.8557 76.3463 29.5858 76.3933 29.2832 76.3933C28.8743 76.3933 28.535 76.3073 28.2651 76.1359C27.9952 75.9639 27.8275 75.7308 27.762 75.4367H26.0199C26.1099 76.1891 26.4555 76.7577 27.0565 77.1418C27.6578 77.5264 28.3957 77.7183 29.2709 77.7183C30.1051 77.7183 30.8023 77.5463 31.3626 77.203C31.9226 76.8596 32.203 76.3728 32.203 75.743C32.203 75.3504 32.0883 75.0336 31.8597 74.7921C31.6305 74.551 31.3299 74.3648 30.9578 74.2341C30.5857 74.1034 30.1176 73.9804 29.5531 73.866C29.4059 73.8335 29.2997 73.8128 29.2342 73.8045C28.7516 73.7066 28.4185 73.6206 28.2343 73.5468C28.0504 73.4734 27.9582 73.3467 27.9582 73.1665C27.9582 72.9703 28.0627 72.8291 28.2711 72.7434C28.4797 72.6577 28.7149 72.6147 28.9765 72.6147C29.3364 72.6147 29.6513 72.6865 29.9215 72.8294C30.1911 72.9726 30.3667 73.1833 30.4487 73.4614H32.1908C32.1008 72.7007 31.7694 72.1404 31.1969 71.7806C30.6244 71.4207 29.9334 71.2408 29.1237 71.2408C28.6409 71.2408 28.1808 71.3063 27.7435 71.4369C27.3059 71.5679 26.95 71.7783 26.6764 72.069C26.4023 72.3594 26.2653 72.7292 26.2653 73.179C26.2733 73.5961 26.394 73.9332 26.6272 74.1911C26.8604 74.4488 27.1587 74.6432 27.5228 74.7739C27.8867 74.9049 28.3508 75.0276 28.9153 75.1417L29.2709 75.2158C29.729 75.2975 30.0396 75.3732 30.2033 75.4427C30.3667 75.5121 30.4487 75.6286 30.4487 75.7923C30.4487 76.0052 30.33 76.1584 30.0931 76.2523Z" fill="#FF5112"/>
<path d="M34.276 69.9402V70.6394C34.276 70.8931 34.2105 71.0853 34.0798 71.2159C33.9488 71.3466 33.7609 71.4121 33.5152 71.4121H32.7548V72.9577H34.141V75.6202C34.141 76.9862 34.9262 77.6689 36.4963 77.6689C36.9544 77.6689 37.4737 77.6154 38.0545 77.5089V75.9755C37.6209 76.0575 37.1876 76.0985 36.7543 76.0985C36.4269 76.0985 36.1937 76.037 36.0548 75.9143C35.9155 75.7916 35.8464 75.5832 35.8464 75.2891V72.958H38.0545V71.4124H35.8464V69.9402H34.276Z" fill="#FF5112"/>
<path d="M39.5389 71.4126V77.5464H41.2439V74.3444C41.2439 73.9193 41.3686 73.5655 41.6183 73.2833C41.8674 73.0012 42.1763 72.8603 42.5441 72.8603C42.9205 72.8603 43.2209 72.9889 43.4458 73.2466C43.671 73.5042 43.7874 73.8456 43.7957 74.271V77.5464H45.501V74.3444C45.501 73.9193 45.6257 73.5655 45.8751 73.2833C46.1245 73.0012 46.4371 72.8603 46.8135 72.8603C47.1816 72.8603 47.48 72.9889 47.7092 73.2466C47.9381 73.5042 48.0528 73.8456 48.0528 74.271V77.5464H49.7701V74.0011C49.7701 73.4613 49.6577 72.9869 49.4327 72.5778C49.2078 72.169 48.8887 71.8524 48.4759 71.6272C48.0628 71.4023 47.5865 71.2899 47.0467 71.2899C46.6296 71.2899 46.241 71.3755 45.8814 71.5472C45.5213 71.7192 45.2186 71.9563 44.9735 72.259C44.7526 71.9478 44.4682 71.7089 44.1208 71.5412C43.7729 71.3736 43.3826 71.2899 42.949 71.2899C42.5812 71.2899 42.2375 71.3613 41.9187 71.5045C41.5998 71.6477 41.3256 71.8541 41.0967 72.1243V71.4126H39.5389Z" fill="#FF5112"/>
<path d="M57.7076 74.4549C57.7076 73.8496 57.5664 73.3061 57.2843 72.8232C57.0021 72.3407 56.6135 71.9643 56.1187 71.6947C55.6239 71.4248 55.0739 71.2899 54.4686 71.2899C53.8551 71.2899 53.2928 71.4288 52.7817 71.7069C52.2707 71.9851 51.8659 72.3714 51.5672 72.8662C51.2689 73.3608 51.1197 73.9151 51.1197 74.5283C51.1197 75.1416 51.2606 75.6859 51.5427 76.1599C51.8252 76.6345 52.2195 77.0046 52.7268 77.2703C53.2336 77.5359 53.8144 77.6688 54.4686 77.6688C55.0087 77.6688 55.4972 77.5766 55.9348 77.3927C56.3721 77.2088 56.726 76.9673 56.9959 76.669C57.2658 76.3703 57.4374 76.0455 57.5112 75.6936H55.8061C55.6914 75.8735 55.5177 76.0167 55.2845 76.1226C55.0514 76.2294 54.7917 76.2826 54.5056 76.2826C54.0475 76.2826 53.6629 76.1579 53.3523 75.9083C53.0414 75.6591 52.8495 75.346 52.7758 74.9699H57.6706C57.6951 74.7979 57.7076 74.6268 57.7076 74.4549ZM52.8125 73.8539C52.9107 73.5025 53.1089 73.2198 53.4075 73.0072C53.7062 72.7945 54.0475 72.6883 54.4319 72.6883C54.8327 72.6883 55.1741 72.7925 55.4562 73.0012C55.7384 73.2096 55.9285 73.494 56.0268 73.8539H52.8125Z" fill="#FF5112"/>
<path d="M59.118 71.4126V77.5464H60.8233V74.3444C60.8233 73.9193 60.9623 73.5675 61.2404 73.2896C61.5183 73.0114 61.8702 72.8725 62.2952 72.8725C62.6961 72.8725 63.013 73.0032 63.2461 73.2651C63.4793 73.5267 63.6 73.8869 63.608 74.3444V77.5464H65.3256V74.0745C65.3256 73.5182 65.2131 73.0297 64.9882 72.6086C64.7633 72.1875 64.4484 71.8624 64.0436 71.6332C63.6387 71.4043 63.1747 71.2899 62.6511 71.2899C62.2505 71.2899 61.8824 71.3613 61.5473 71.5045C61.2117 71.6477 60.9213 71.8502 60.6761 72.1118V71.4126H59.118Z" fill="#FF5112"/>
<path d="M67.7672 69.9402V70.6394C67.7672 70.8931 67.7018 71.0853 67.5708 71.2159C67.4401 71.3466 67.2519 71.4121 67.0065 71.4121H66.2461V72.9577H67.6323V75.6202C67.6323 76.9862 68.4175 77.6689 69.9876 77.6689C70.4457 77.6689 70.965 77.6154 71.5458 77.5089V75.9755C71.1122 76.0575 70.6789 76.0985 70.2453 76.0985C69.9182 76.0985 69.685 76.037 69.5461 75.9143C69.4068 75.7916 69.3374 75.5832 69.3374 75.2891V72.958H71.5458V71.4124H69.3374V69.9402H67.7672Z" fill="#FF5112"/>
<path d="M76.2934 73.0933H72.834V74.627H76.2934V73.0933Z" fill="#FF5112"/>
<path d="M78.1089 71.4126V80H79.814V76.9696C80.0515 77.1906 80.3234 77.3622 80.63 77.4852C80.9369 77.6076 81.2617 77.6691 81.6054 77.6691C82.1859 77.6691 82.7094 77.5299 83.1758 77.2521C83.6418 76.9736 84.0077 76.5935 84.2736 76.1107C84.5392 75.6284 84.6722 75.0846 84.6722 74.4794C84.6722 73.8744 84.5392 73.3303 84.2736 72.848C84.0077 72.3655 83.6418 71.9848 83.1758 71.7069C82.7094 71.4288 82.1859 71.2899 81.6054 71.2899C81.2207 71.2899 80.8649 71.3613 80.538 71.5045C80.2106 71.6477 79.9202 71.8502 79.6668 72.1118V71.4126H78.1089ZM80.2251 73.3263C80.5238 73.0157 80.8979 72.8603 81.3477 72.8603C81.7975 72.8603 82.1736 73.0157 82.4763 73.3263C82.7786 73.6375 82.9303 74.0215 82.9303 74.4796C82.9303 74.9377 82.7786 75.3221 82.4763 75.633C82.1736 75.9439 81.7975 76.0993 81.3477 76.0993C80.8979 76.0993 80.5238 75.9439 80.2251 75.633C79.9265 75.3221 79.7773 74.9377 79.7773 74.4796C79.7773 74.0215 79.9265 73.6372 80.2251 73.3263Z" fill="#FF5112"/>
<path d="M87.3219 77.2528C87.8372 77.5304 88.4094 77.6696 89.0394 77.6696C89.6692 77.6696 90.2397 77.5304 90.7508 77.2528C91.2618 76.9741 91.6647 76.592 91.9593 76.1051C92.2537 75.6189 92.4009 75.0771 92.4009 74.4798C92.4009 73.8828 92.2557 73.341 91.9653 72.8544C91.6749 72.3676 91.2724 71.9855 90.757 71.7074C90.2417 71.4292 89.6692 71.2903 89.0394 71.2903C88.4094 71.2903 87.8372 71.4292 87.3219 71.7074C86.8068 71.9858 86.4037 72.3676 86.1133 72.8544C85.8229 73.341 85.678 73.8828 85.678 74.4798C85.678 75.0771 85.8229 75.6189 86.1133 76.1051C86.4037 76.5917 86.8068 76.9741 87.3219 77.2528ZM87.8739 73.3145C88.1765 73.0119 88.5651 72.8604 89.0394 72.8604C89.5055 72.8604 89.8918 73.0116 90.1987 73.3145C90.5054 73.6172 90.6588 74.0055 90.6588 74.4798C90.6588 74.9541 90.5054 75.343 90.1987 75.6453C89.8918 75.948 89.5055 76.0994 89.0394 76.0994C88.5734 76.0994 88.1871 75.948 87.8802 75.6453C87.5735 75.343 87.4201 74.9541 87.4201 74.4798C87.4201 74.0055 87.5712 73.6169 87.8739 73.3145Z" fill="#FF5112"/>
<path d="M97.7866 73.2774L98.9148 77.5465H101.025L102.583 71.4126H100.902L99.8225 75.7306L98.6942 71.4126H96.9279L95.7866 75.7677L94.6822 71.4126H92.9894L94.5478 77.5465H96.6575L97.7866 73.2774Z" fill="#FF5112"/>
<path d="M109.772 74.4549C109.772 73.8496 109.631 73.3061 109.349 72.8232C109.066 72.3407 108.678 71.9643 108.183 71.6947C107.688 71.4248 107.138 71.2899 106.533 71.2899C105.92 71.2899 105.357 71.4288 104.846 71.7069C104.335 71.9851 103.93 72.3714 103.632 72.8662C103.333 73.3608 103.184 73.9151 103.184 74.5283C103.184 75.1416 103.325 75.6859 103.607 76.1599C103.889 76.6345 104.284 77.0046 104.791 77.2703C105.298 77.5359 105.879 77.6688 106.533 77.6688C107.073 77.6688 107.561 77.5766 107.999 77.3927C108.437 77.2088 108.791 76.9673 109.06 76.669C109.33 76.3703 109.502 76.0455 109.576 75.6936H107.87C107.756 75.8735 107.582 76.0167 107.349 76.1226C107.116 76.2294 106.856 76.2826 106.57 76.2826C106.112 76.2826 105.727 76.1579 105.417 75.9083C105.106 75.6591 104.914 75.346 104.84 74.9699H109.735C109.76 74.7979 109.772 74.6268 109.772 74.4549ZM104.877 73.8539C104.975 73.5025 105.173 73.2198 105.472 73.0072C105.77 72.7945 106.112 72.6883 106.496 72.6883C106.897 72.6883 107.239 72.7925 107.521 73.0012C107.803 73.2099 107.993 73.494 108.091 73.8539H104.877Z" fill="#FF5112"/>
<path d="M111.183 71.4126V77.5464H112.888V74.2342C112.888 73.8581 113.008 73.539 113.249 73.2774C113.491 73.0157 113.787 72.8847 114.139 72.8847C114.441 72.8847 114.683 72.9622 114.863 73.1179C115.043 73.2734 115.133 73.498 115.133 73.7924V74.0378H116.838V73.6204C116.838 72.901 116.625 72.3324 116.2 71.9153C115.775 71.4983 115.227 71.2899 114.556 71.2899C114.196 71.2899 113.859 71.3613 113.544 71.5045C113.229 71.6477 112.961 71.8502 112.74 72.1118V71.4126H111.183Z" fill="#FF5112"/>
<path d="M123.929 74.4549C123.929 73.8496 123.788 73.3061 123.506 72.8232C123.224 72.3407 122.835 71.9643 122.34 71.6947C121.845 71.4248 121.295 71.2899 120.69 71.2899C120.077 71.2899 119.514 71.4288 119.003 71.7069C118.492 71.9851 118.087 72.3714 117.788 72.8662C117.49 73.3608 117.341 73.9151 117.341 74.5283C117.341 75.1416 117.482 75.6859 117.764 76.1599C118.046 76.6345 118.441 77.0046 118.948 77.2703C119.455 77.5359 120.035 77.6688 120.69 77.6688C121.229 77.6688 121.718 77.5766 122.155 77.3927C122.593 77.2088 122.947 76.9673 123.217 76.669C123.487 76.3703 123.659 76.0455 123.732 75.6936H122.027C121.913 75.8735 121.739 76.0167 121.506 76.1226C121.273 76.2294 121.013 76.2826 120.727 76.2826C120.269 76.2826 119.884 76.1579 119.574 75.9083C119.263 75.6591 119.07 75.346 118.997 74.9699H123.892C123.917 74.7979 123.929 74.6268 123.929 74.4549ZM119.034 73.8539C119.132 73.5025 119.33 73.2198 119.628 73.0072C119.927 72.7945 120.269 72.6883 120.653 72.6883C121.053 72.6883 121.396 72.7925 121.678 73.0012C121.96 73.2096 122.15 73.494 122.248 73.8539H119.034Z" fill="#FF5112"/>
<path d="M131.449 77.5464V68.836H129.743V71.9888C129.506 71.7681 129.234 71.5962 128.928 71.4737C128.621 71.3508 128.292 71.2898 127.94 71.2898C127.359 71.2898 126.838 71.4288 126.376 71.7069C125.914 71.9848 125.55 72.3654 125.284 72.848C125.018 73.3303 124.885 73.8743 124.885 74.4793C124.885 75.0849 125.018 75.6284 125.284 76.1107C125.55 76.5935 125.914 76.9736 126.376 77.252C126.838 77.5299 127.359 77.6691 127.94 77.6691C128.324 77.6691 128.682 77.5974 129.014 77.4545C129.345 77.3112 129.633 77.1085 129.879 76.8469V77.5461H131.449V77.5464ZM129.327 75.6327C129.024 75.9436 128.651 76.099 128.21 76.099C127.76 76.099 127.384 75.9436 127.081 75.6327C126.778 75.3218 126.627 74.9374 126.627 74.4793C126.627 74.0212 126.778 73.6372 127.081 73.326C127.384 73.0154 127.76 72.86 128.21 72.86C128.651 72.86 129.023 73.0154 129.327 73.326C129.629 73.6372 129.78 74.0212 129.78 74.4793C129.78 74.9374 129.629 75.3218 129.327 75.6327Z" fill="#FF5112"/>
<path d="M136.527 71.4126V80H138.233V76.9696C138.47 77.1906 138.742 77.3622 139.049 77.4852C139.355 77.6076 139.68 77.6691 140.024 77.6691C140.605 77.6691 141.128 77.5299 141.594 77.2521C142.06 76.9736 142.426 76.5935 142.692 76.1107C142.958 75.6284 143.091 75.0846 143.091 74.4794C143.091 73.8744 142.958 73.3303 142.692 72.848C142.426 72.3655 142.06 71.9848 141.594 71.7069C141.128 71.4288 140.605 71.2899 140.024 71.2899C139.639 71.2899 139.283 71.3613 138.957 71.5045C138.63 71.6477 138.339 71.8502 138.085 72.1118V71.4126H136.527ZM138.644 73.3263C138.942 73.0157 139.316 72.8603 139.766 72.8603C140.216 72.8603 140.592 73.0157 140.895 73.3263C141.197 73.6375 141.349 74.0215 141.349 74.4796C141.349 74.9377 141.197 75.3221 140.895 75.633C140.592 75.9439 140.216 76.0993 139.766 76.0993C139.316 76.0993 138.942 75.9439 138.644 75.633C138.345 75.3221 138.196 74.9377 138.196 74.4796C138.196 74.0215 138.345 73.6372 138.644 73.3263Z" fill="#FF5112"/>
<path d="M146.255 68.8359H144.55V77.5463H146.255V68.8359Z" fill="#FF5112"/>
<path d="M151.666 73.7801C151.486 73.8621 151.183 73.9191 150.758 73.9518C148.697 74.0748 147.667 74.741 147.667 75.9515C147.667 76.4834 147.855 76.9044 148.231 77.215C148.607 77.5259 149.123 77.6814 149.777 77.6814C150.251 77.6814 150.699 77.6017 151.121 77.4419C151.542 77.2825 151.883 77.0639 152.145 76.7854V77.5584L154.28 77.5461V76.0495H153.568V73.7921C153.568 73.0314 153.325 72.4241 152.838 71.9703C152.352 71.5165 151.699 71.2899 150.881 71.2899C150.08 71.2899 149.413 71.494 148.882 71.9028C148.35 72.3122 148.035 72.8597 147.937 73.5464H149.532C149.598 73.2603 149.743 73.0396 149.968 72.8842C150.192 72.7287 150.473 72.6513 150.808 72.6513C151.135 72.6513 151.405 72.723 151.618 72.866C151.83 73.0092 151.937 73.1911 151.937 73.4117C151.936 73.5757 151.846 73.6987 151.666 73.7801ZM152.009 74.7006V74.774C152.009 75.0524 151.926 75.3138 151.758 75.5592C151.59 75.8044 151.365 76.0008 151.083 76.148C150.801 76.2952 150.5 76.3686 150.182 76.3686C149.928 76.3686 149.734 76.3174 149.599 76.2155C149.464 76.1133 149.396 75.968 149.396 75.7799C149.396 75.551 149.509 75.373 149.734 75.2463C149.959 75.1197 150.329 75.0359 150.844 74.9947C151.114 74.9702 151.357 74.9295 151.574 74.8722C151.79 74.815 151.936 74.7575 152.009 74.7006Z" fill="#FF5112"/>
<path d="M155.689 71.4126V77.5464H157.395V74.3444C157.395 73.9193 157.534 73.5675 157.812 73.2896C158.09 73.0114 158.442 72.8725 158.867 72.8725C159.268 72.8725 159.585 73.0032 159.818 73.2651C160.051 73.5267 160.171 73.8869 160.179 74.3444V77.5464H161.897V74.0745C161.897 73.5182 161.784 73.0297 161.559 72.6086C161.334 72.1875 161.019 71.8624 160.615 71.6332C160.21 71.4043 159.745 71.2899 159.222 71.2899C158.821 71.2899 158.454 71.3613 158.118 71.5045C157.783 71.6477 157.493 71.8502 157.247 72.1118V71.4126H155.689Z" fill="#FF5112"/>
<path d="M164.338 69.9402V70.6394C164.338 70.8931 164.273 71.0853 164.142 71.2159C164.011 71.3466 163.823 71.4121 163.578 71.4121H162.817V72.9577H164.204V75.6202C164.204 76.9862 164.989 77.6689 166.559 77.6689C167.017 77.6689 167.536 77.6154 168.117 77.5089V75.9755C167.684 76.0575 167.25 76.0985 166.817 76.0985C166.49 76.0985 166.257 76.037 166.117 75.9143C165.978 75.7916 165.909 75.5832 165.909 75.2891V72.958H168.117V71.4124H165.909V69.9402H164.338Z" fill="#FF5112"/>
<path d="M172.668 71.4125V77.5464H174.374V74.3443C174.374 73.9193 174.512 73.5674 174.791 73.2895C175.069 73.0117 175.42 72.8724 175.845 72.8724C176.246 72.8724 176.563 73.0031 176.796 73.265C177.029 73.5267 177.15 73.8868 177.158 74.3443V77.5464H178.876V74.0744C178.876 73.5181 178.763 73.0296 178.538 72.6085C178.313 72.1875 177.998 71.8623 177.593 71.6331C177.189 71.4042 176.724 71.2898 176.201 71.2898C175.8 71.2898 175.432 71.3613 175.097 71.5045C174.762 71.6477 174.471 71.8501 174.226 72.1117V71.4125H172.668Z" fill="#FF5112"/>
<path d="M186.85 77.5465V71.4126H185.145V74.6143C185.145 75.0397 185.006 75.3913 184.728 75.6694C184.45 75.9476 184.098 76.0868 183.673 76.0868C183.272 76.0868 182.955 75.9535 182.722 75.6882C182.489 75.4223 182.372 75.0647 182.372 74.6146L182.36 71.4129H180.642V74.8848C180.642 75.4408 180.755 75.9294 180.98 76.3504C181.205 76.7715 181.52 77.0966 181.925 77.3258C182.329 77.5547 182.793 77.6694 183.317 77.6694C183.718 77.6694 184.086 77.5977 184.421 77.4548C184.756 77.3116 185.047 77.1089 185.292 76.8472V77.5465H186.85Z" fill="#FF5112"/>
<path d="M189.573 69.9402V70.6394C189.573 70.8931 189.508 71.0853 189.377 71.2159C189.246 71.3466 189.058 71.4121 188.813 71.4121H188.052V72.9577H189.439V75.6202C189.439 76.9862 190.224 77.6689 191.794 77.6689C192.252 77.6689 192.771 77.6154 193.352 77.5089V75.9755C192.918 76.0575 192.485 76.0985 192.052 76.0985C191.724 76.0985 191.491 76.037 191.352 75.9143C191.213 75.7916 191.144 75.5832 191.144 75.2891V72.958H193.352V71.4124H191.144V69.9402H189.573Z" fill="#FF5112"/>
<path d="M194.836 71.4126V77.5464H196.541V74.2342C196.541 73.8581 196.662 73.539 196.903 73.2774C197.144 73.0157 197.441 72.8847 197.793 72.8847C198.095 72.8847 198.336 72.9622 198.516 73.1179C198.696 73.2734 198.786 73.498 198.786 73.7924V74.0378H200.491V73.6204C200.491 72.901 200.279 72.3324 199.854 71.9153C199.428 71.4983 198.88 71.2899 198.21 71.2899C197.85 71.2899 197.512 71.3613 197.198 71.5045C196.883 71.6477 196.615 71.8502 196.394 72.1118V71.4126H194.836Z" fill="#FF5112"/>
<path d="M201.142 68.4067L202.246 70.7134H202.368L203.472 68.4067H201.142Z" fill="#FF5112"/>
<path d="M203.154 71.4126H201.448V77.5465H203.154V71.4126Z" fill="#FF5112"/>
<path d="M205.877 69.9402V70.6394C205.877 70.8931 205.812 71.0853 205.681 71.2159C205.55 71.3466 205.362 71.4121 205.117 71.4121H204.356V72.9577H205.743V75.6202C205.743 76.9862 206.528 77.6689 208.098 77.6689C208.556 77.6689 209.075 77.6154 209.656 77.5089V75.9755C209.222 76.0575 208.789 76.0985 208.356 76.0985C208.028 76.0985 207.795 76.037 207.656 75.9143C207.517 75.7916 207.448 75.5832 207.448 75.2891V72.958H209.656V71.4124H207.448V69.9402H205.877Z" fill="#FF5112"/>
<path d="M212.845 71.4126H211.14V77.5465H212.845V71.4126Z" fill="#FF5112"/>
<path d="M210.834 68.4067L211.937 70.7134H212.06L213.164 68.4067H210.834Z" fill="#FF5112"/>
<path d="M215.961 77.2528C216.477 77.5304 217.049 77.6696 217.679 77.6696C218.308 77.6696 218.879 77.5304 219.39 77.2528C219.901 76.9741 220.304 76.592 220.599 76.1051C220.893 75.6189 221.04 75.0771 221.04 74.4798C221.04 73.8828 220.895 73.341 220.605 72.8544C220.314 72.3676 219.912 71.9855 219.397 71.7074C218.881 71.4292 218.309 71.2903 217.679 71.2903C217.049 71.2903 216.477 71.4292 215.962 71.7074C215.446 71.9858 215.043 72.3676 214.753 72.8544C214.463 73.341 214.318 73.8828 214.318 74.4798C214.318 75.0771 214.463 75.6189 214.753 76.1051C215.043 76.5917 215.446 76.9741 215.961 77.2528ZM216.513 73.3145C216.816 73.0119 217.204 72.8604 217.679 72.8604C218.145 72.8604 218.531 73.0116 218.838 73.3145C219.145 73.6172 219.298 74.0055 219.298 74.4798C219.298 74.9541 219.145 75.343 218.838 75.6453C218.531 75.948 218.145 76.0994 217.679 76.0994C217.213 76.0994 216.826 75.948 216.52 75.6453C216.213 75.343 216.06 74.9541 216.06 74.4798C216.06 74.0055 216.211 73.6169 216.513 73.3145Z" fill="#FF5112"/>
<path d="M227.425 71.6331C227.021 71.4042 226.556 71.2898 226.032 71.2898C225.632 71.2898 225.264 71.3613 224.929 71.5045C224.593 71.6477 224.303 71.8501 224.057 72.1117V71.4125H222.499V77.5464H224.205V74.3443C224.205 73.9193 224.344 73.5674 224.622 73.2895C224.9 73.0117 225.251 72.8724 225.676 72.8724C226.077 72.8724 226.394 73.0031 226.627 73.265C226.861 73.5267 226.982 73.8868 226.99 74.3443V77.5464H228.707V74.0744C228.707 73.5181 228.594 73.0296 228.369 72.6085C228.145 72.1875 227.83 71.8623 227.425 71.6331Z" fill="#FF5112"/>
</svg>
