<svg width="30" height="30" viewBox="0 0 30 30" fill="none" xmlns="http://www.w3.org/2000/svg">
<path fill-rule="evenodd" clip-rule="evenodd" d="M5.25 3C4.42157 3 3.75 3.67157 3.75 4.5V25.5C3.75 26.3285 4.42156 27 5.25 27H15.75C16.5785 27 17.25 26.3285 17.25 25.5V21.75C17.25 20.9216 17.9216 20.25 18.75 20.25C19.5784 20.25 20.25 20.9216 20.25 21.75V25.5C20.25 27.9853 18.2353 30 15.75 30H5.25C2.76473 30 0.75 27.9853 0.75 25.5V4.5C0.75 2.01472 2.76472 0 5.25 0H15.75C18.2353 0 20.25 2.01473 20.25 4.5V9.09375C20.25 9.92218 19.5784 10.5938 18.75 10.5938C17.9216 10.5938 17.25 9.92218 17.25 9.09375V4.5C17.25 3.67156 16.5785 3 15.75 3H5.25ZM22.9393 10.1893C23.5251 9.60355 24.4749 9.60355 25.0607 10.1893L28.8107 13.9393C29.3964 14.5251 29.3964 15.4749 28.8107 16.0607L25.0607 19.8107C24.4749 20.3964 23.5251 20.3964 22.9393 19.8107C22.3536 19.2249 22.3536 18.2751 22.9393 17.6893L24.1287 16.5H12.75C11.9216 16.5 11.25 15.8284 11.25 15C11.25 14.1716 11.9216 13.5 12.75 13.5H24.1287L22.9393 12.3107C22.3536 11.7249 22.3536 10.7751 22.9393 10.1893Z" fill="#FF5112"/>
</svg>
