<svg width="31" height="31" viewBox="0 0 31 31" fill="none" xmlns="http://www.w3.org/2000/svg">
<path d="M8.8917 22.312H7.4917V23.9111H8.8917C9.4167 23.9111 9.7667 23.5913 9.7667 23.1115C9.7667 22.6318 9.4167 22.312 8.8917 22.312ZM17.9917 3.12189H3.9917V28.7087H26.7417V11.1178L17.9917 3.12189ZM11.3417 23.2715C11.3417 24.5508 10.2917 25.5103 8.8917 25.5103H7.4917V27.1095H5.7417V20.7128H8.8917C10.2917 20.7128 11.3417 21.6723 11.3417 22.9516V23.2715ZM18.5167 24.0711C18.5167 25.6702 17.1167 27.1095 15.1917 27.1095H12.7417V20.7128H15.1917C16.9417 20.7128 18.5167 21.9921 18.5167 23.7512V24.0711ZM24.9917 22.312H21.4917V23.9111H24.1167V25.5103H21.4917V27.1095H19.7417V20.7128H24.9917V22.312ZM24.9917 19.1136H5.7417V4.72106H17.9917V11.1178H24.9917V19.1136ZM15.1917 22.312H14.4917V25.5103H15.1917C16.2417 25.5103 16.9417 24.8706 16.9417 23.9111C16.9417 22.9516 16.0667 22.312 15.1917 22.312Z" fill="#1637AB"/>
</svg>
