<svg width="31" height="31" viewBox="0 0 31 31" fill="none" xmlns="http://www.w3.org/2000/svg">
<path d="M29.5972 5.87136L25.401 1.67511C24.6503 0.93421 23.6695 0.471263 22.6204 0.362612C22.5375 0.33021 22.4503 0.309999 22.3616 0.302612L5.65723 0.302612C4.41402 0.302612 3.22174 0.796472 2.34266 1.67555C1.46359 2.55463 0.969727 3.74691 0.969727 4.99011V25.6151C0.969727 26.8583 1.46359 28.0506 2.34266 28.9297C3.22174 29.8088 4.41402 30.3026 5.65723 30.3026H26.2822C27.5254 30.3026 28.7177 29.8088 29.5968 28.9297C30.4759 28.0506 30.9697 26.8583 30.9697 25.6151V9.18449C30.9713 8.56893 30.8509 7.95916 30.6153 7.39047C30.3797 6.82178 30.0337 6.30545 29.5972 5.87136ZM15.9697 2.17761V10.5307H9.2366V2.17761H15.9697ZM7.95973 28.4276V20.0745H23.9797V28.4276H7.95973ZM29.0947 25.6151C29.0947 26.361 28.7984 27.0764 28.271 27.6039C27.7435 28.1313 27.0281 28.4276 26.2822 28.4276H25.8547V19.137C25.8547 18.8883 25.756 18.6499 25.5801 18.4741C25.4043 18.2983 25.1659 18.1995 24.9172 18.1995H7.02223C6.77359 18.1995 6.53513 18.2983 6.35931 18.4741C6.1835 18.6499 6.08473 18.8883 6.08473 19.137V28.4276H5.65723C4.91131 28.4276 4.19594 28.1313 3.66849 27.6039C3.14104 27.0764 2.84473 26.361 2.84473 25.6151V4.99011C2.84473 4.24419 3.14104 3.52882 3.66849 3.00137C4.19594 2.47393 4.91131 2.17761 5.65723 2.17761H7.3616V11.4682C7.3616 11.7169 7.46037 11.9553 7.63619 12.1311C7.812 12.307 8.05046 12.4057 8.2991 12.4057H22.3616C22.6102 12.4057 22.8487 12.307 23.0245 12.1311C23.2003 11.9553 23.2991 11.7169 23.2991 11.4682V2.46824C23.5862 2.60118 23.8487 2.78187 24.0754 3.00261L28.2716 7.19886C28.7962 7.72692 29.0918 8.44018 29.0947 9.18449V25.6151Z" fill="#FF5112"/>
</svg>
