<svg width="30" height="30" viewBox="0 0 30 30" fill="none" xmlns="http://www.w3.org/2000/svg">
<path fill-rule="evenodd" clip-rule="evenodd" d="M12.75 3C7.36522 3 3 7.36522 3 12.75C3 18.1347 7.36522 22.5 12.75 22.5C18.1347 22.5 22.5 18.1347 22.5 12.75C22.5 7.36522 18.1347 3 12.75 3ZM0 12.75C0 5.70836 5.70836 0 12.75 0C19.7916 0 25.5 5.70836 25.5 12.75C25.5 15.7355 24.4739 18.4813 22.755 20.6541L29.5591 27.4377C30.1457 28.0227 30.1472 28.9724 29.5623 29.5591C28.9773 30.1457 28.0276 30.1472 27.4409 29.5623L20.6313 22.773C18.4622 24.481 15.7251 25.5 12.75 25.5C5.70836 25.5 0 19.7916 0 12.75Z" fill="#FF5112"/>
</svg>
