<svg width="30" height="30" viewBox="0 0 30 30" fill="none" xmlns="http://www.w3.org/2000/svg">
<path fill-rule="evenodd" clip-rule="evenodd" d="M15 7.69232C15.6373 7.69232 16.1539 8.20892 16.1539 8.84617V14.5221L19.6621 18.0303C20.1127 18.4809 20.1127 19.2115 19.6621 19.6621C19.2115 20.1127 18.4809 20.1127 18.0303 19.6621L14.1841 15.8159C13.9678 15.5995 13.8462 15.306 13.8462 15V8.84617C13.8462 8.20892 14.3628 7.69232 15 7.69232Z" fill="#FF5112"/>
<path d="M3.21208 7.10863L2.05825 7.11443C2.06142 7.74714 2.57355 8.25928 3.20628 8.26246L3.21208 7.10863ZM7.12251 8.28214C7.75975 8.28534 8.27894 7.77135 8.28214 7.13411C8.28534 6.49686 7.77135 5.97768 7.13411 5.97448L7.12251 8.28214ZM4.34623 3.1866C4.34302 2.54935 3.82385 2.03535 3.1866 2.03855C2.54935 2.04177 2.03535 2.56095 2.03857 3.19818L4.34623 3.1866ZM2.30769 15C2.30769 14.3628 1.79109 13.8462 1.15385 13.8462C0.5166 13.8462 0 14.3628 0 15H2.30769ZM22.5008 27.9926C23.0525 27.6735 23.2409 26.9677 22.9218 26.416C22.6028 25.8645 21.8969 25.6758 21.3454 25.9951L22.5008 27.9926ZM25.9951 21.3454C25.6758 21.8969 25.8645 22.6028 26.416 22.9218C26.9677 23.2409 27.6735 23.0525 27.9926 22.5008L25.9951 21.3454ZM4.44666 4.3404C3.99382 4.78875 3.99017 5.51932 4.43854 5.97217C4.88689 6.42502 5.61745 6.42865 6.07029 5.98029L4.44666 4.3404ZM25.5574 4.44286C19.6802 -1.43437 10.1828 -1.49388 4.34446 4.34446L5.97625 5.97625C10.8979 1.05454 18.9342 1.08314 23.9257 6.07465L25.5574 4.44286ZM4.34446 4.34446L2.39618 6.29274L4.02797 7.92452L5.97625 5.97625L4.34446 4.34446ZM3.20628 8.26246L7.12251 8.28214L7.13411 5.97448L3.21788 5.9548L3.20628 8.26246ZM4.36591 7.10283L4.34623 3.1866L2.03857 3.19818L2.05825 7.11443L4.36591 7.10283ZM15 2.30769C22.0097 2.30769 27.6923 7.99023 27.6923 15H30C30 6.71572 23.2843 0 15 0V2.30769ZM15 27.6923C7.99023 27.6923 2.30769 22.0097 2.30769 15H0C0 23.2843 6.71572 30 15 30V27.6923ZM21.3454 25.9951C19.4797 27.0743 17.3137 27.6923 15 27.6923V30C17.7303 30 20.2934 29.2695 22.5008 27.9926L21.3454 25.9951ZM27.6923 15C27.6923 17.3137 27.0743 19.4797 25.9951 21.3454L27.9926 22.5008C29.2695 20.2934 30 17.7303 30 15H27.6923ZM6.07029 5.98029C8.36472 3.7086 11.5176 2.30769 15 2.30769V0C10.8853 0 7.15558 1.65832 4.44666 4.3404L6.07029 5.98029Z" fill="#FF5112"/>
</svg>
